<svg xmlns="http://www.w3.org/2000/svg" xmlns:xlink="http://www.w3.org/1999/xlink" width="23" height="23" viewBox="0 0 23 23">
  <defs>
    <clipPath id="clip">
      <use xlink:href="#fill"/>
    </clipPath>
  </defs>
  <g id="Group_23380" data-name="Group 23380" transform="translate(-5711 22377)">
    <rect id="Rectangle_2004" data-name="Rectangle 2004" width="23" height="23" transform="translate(5711 -22377)" fill="none"/>
    <g id="Group_1709" data-name="Group 1709" transform="translate(5712.917 -22374.125)">
      <g id="Path_42822" data-name="Path 42822" transform="translate(-30.305 -3.193)" fill="none" stroke-linecap="round" stroke-linejoin="round">
        <path d="M44.941,4.151l-5.009-.958-5.139.958S33.425,4.6,33.127,5.3l-1.864,6.523a64.315,64.315,0,0,1,8.6-.672,67.345,67.345,0,0,1,8.647.672L46.606,5.3C46.308,4.6,44.941,4.151,44.941,4.151Z" stroke="none"/>
        <path d="M 39.92699432373047 5.228361129760742 L 35.31869125366211 6.087645530700684 C 35.18472290039063 6.140392303466797 35.03795623779297 6.21014404296875 34.92737579345703 6.272494316101074 L 34.01527404785156 9.465017318725586 C 35.64829254150391 9.30121898651123 37.75229644775391 9.14617919921875 39.86648178100586 9.14617919921875 C 41.95322799682617 9.14617919921875 44.08405303955078 9.304054260253906 45.7428092956543 9.46931266784668 L 44.80894470214844 6.27439022064209 C 44.69696426391602 6.210982322692871 44.54687118530273 6.139632225036621 44.41053771972656 6.086180686950684 L 39.92699432373047 5.228361129760742 M 39.93178176879883 3.192998886108398 L 44.9406623840332 4.151329040527344 C 44.9406623840332 4.151329040527344 46.30786895751953 4.597908973693848 46.60641098022461 5.295198440551758 L 48.51300048828125 11.8179988861084 C 48.51300048828125 11.8179988861084 44.05146026611328 11.14617919921875 39.86648178100586 11.14617919921875 C 35.58535003662109 11.14617919921875 31.26300048828125 11.8179988861084 31.26300048828125 11.8179988861084 L 33.12656021118164 5.295198440551758 C 33.42509078979492 4.597908973693848 34.79230117797852 4.151329040527344 34.79230117797852 4.151329040527344 L 39.93178176879883 3.192998886108398 Z" stroke="none" fill="#b9c6d4"/>
      </g>
      <g id="Path_42823" data-name="Path 42823" transform="translate(-30.17 -3.047)" fill="#fff" stroke-linecap="round" stroke-linejoin="round">
        <path d="M 39.5893669128418 17.37490272521973 L 31.17000389099121 16.48077011108398 L 31.17000389099121 12.77455711364746 C 31.17000389099121 11.58884716033936 32.03247451782227 10.42508697509766 32.91122436523438 10.42508697509766 L 32.97172546386719 10.42508697509766 L 33.03179550170898 10.41778659820557 C 33.08291244506836 10.41158676147461 38.16217422485352 9.7969970703125 39.80632400512695 9.7969970703125 C 41.42335510253906 9.7969970703125 46.42269515991211 10.41135692596436 46.47300338745117 10.41756725311279 L 46.53398513793945 10.42508697509766 L 46.59543228149414 10.42508697509766 C 47.47418594360352 10.42508697509766 48.33666229248047 11.58884716033936 48.33666229248047 12.77455711364746 L 48.33666229248047 16.47753524780273 L 39.5893669128418 17.37490272521973 Z" stroke="none"/>
        <path d="M 39.59116744995117 16.36946868896484 L 47.33666229248047 15.57487487792969 L 47.33666229248047 12.77455711364746 C 47.33666229248047 12.00021648406982 46.76910400390625 11.42508697509766 46.59543228149414 11.42508697509766 C 46.51359558105469 11.42508697509766 46.43181228637695 11.42005729675293 46.35059356689453 11.41004657745361 C 44.96807479858398 11.23952674865723 41.09734344482422 10.7969970703125 39.80632400512695 10.7969970703125 C 38.49202346801758 10.7969970703125 34.5574951171875 11.2398567199707 33.15236282348633 11.41049671173096 C 33.07235336303711 11.42021656036377 32.99181365966797 11.42508697509766 32.91122436523438 11.42508697509766 C 32.73755264282227 11.42508697509766 32.17000579833984 12.00021648406982 32.17000579833984 12.77455711364746 L 32.17000579833984 15.5813455581665 L 39.59116744995117 16.36946868896484 M 39.58756256103516 18.38033676147461 L 30.17000389099121 17.38019752502441 L 30.17000389099121 12.77455711364746 C 30.17000389099121 11.1173267364502 31.39715385437012 9.425086975097656 32.91122436523438 9.425086975097656 C 32.91122436523438 9.425086975097656 38.08209228515625 8.7969970703125 39.80632400512695 8.7969970703125 C 41.50406265258789 8.7969970703125 46.59543228149414 9.425086975097656 46.59543228149414 9.425086975097656 C 48.10950469970703 9.425086975097656 49.33666229248047 11.1173267364502 49.33666229248047 12.77455711364746 L 49.33666229248047 17.38019752502441 L 39.58756256103516 18.38033676147461 Z" stroke="none" fill="#b9c6d4"/>
      </g>
      <g id="Rectangle_2001" data-name="Rectangle 2001" transform="translate(0 12.938)" fill="#fff" stroke="#b9c6d4" stroke-linecap="round" stroke-linejoin="round" stroke-width="2">
        <rect width="2.875" height="4.313" rx="1.438" stroke="none"/>
        <rect x="1" y="1" width="0.875" height="2.313" rx="0.438" fill="none"/>
      </g>
      <g id="Rectangle_2002" data-name="Rectangle 2002" transform="translate(16.292 12.938)" fill="#fff" stroke="#b9c6d4" stroke-linecap="round" stroke-linejoin="round" stroke-width="2">
        <rect width="2.875" height="4.313" rx="1.438" stroke="none"/>
        <rect x="1" y="1" width="0.875" height="2.313" rx="0.438" fill="none"/>
      </g>
      <g id="Ellipse_773" data-name="Ellipse 773" transform="translate(2.875 8.625)" fill="#fff" stroke="#b9c6d4" stroke-linecap="round" stroke-linejoin="round" stroke-width="2">
        <circle cx="1.438" cy="1.438" r="1.438" stroke="none"/>
        <circle cx="1.438" cy="1.438" r="0.438" fill="none"/>
      </g>
      <g id="Ellipse_774" data-name="Ellipse 774" transform="translate(13.417 8.625)" fill="#fff" stroke="#b9c6d4" stroke-linecap="round" stroke-linejoin="round" stroke-width="2">
        <circle cx="1.438" cy="1.438" r="1.438" stroke="none"/>
        <circle cx="1.438" cy="1.438" r="0.438" fill="none"/>
      </g>
      <g id="Rectangle_2003" data-name="Rectangle 2003" transform="translate(6.708 10.542)" fill="#fff" stroke="#b9c6d4" stroke-linecap="round" stroke-linejoin="round" stroke-width="2">
        <rect id="fill" width="5.75" height="1.917" rx="0.958" stroke="none"/>
        <path d="M0,0.9166666269302368h5.75M4.75,0v1.9166666269302368M5.75,1h-5.75M1,1.9166666269302368v-1.9166666269302368" fill="none" clip-path="url(#clip)"/>
      </g>
    </g>
  </g>
</svg>
