<svg xmlns="http://www.w3.org/2000/svg" width="24" height="24" viewBox="0 0 24 24"><g transform="translate(-32 -335)"><rect width="24" height="24" transform="translate(32 335)" fill="none"/><path d="M15.05,5A5,5,0,0,1,19,8.95M15.05,1A9,9,0,0,1,23,8.94m-1,7.98v3a2,2,0,0,1-2.18,2,19.79,19.79,0,0,1-8.63-3.07,19.5,19.5,0,0,1-6-6A19.79,19.79,0,0,1,2.12,4.18,2,2,0,0,1,4.11,2h3a2,2,0,0,1,2,1.72,12.84,12.84,0,0,0,.7,2.81,2,2,0,0,1-.45,2.11L8.09,9.91a16,16,0,0,0,6,6l1.27-1.27a2,2,0,0,1,2.11-.45,12.84,12.84,0,0,0,2.81.7A2,2,0,0,1,22,16.92Z" transform="translate(31.388 335.501)" fill="none" stroke="#0aa5f3" stroke-linecap="round" stroke-linejoin="round" stroke-width="2"/></g></svg>