<svg xmlns="http://www.w3.org/2000/svg" width="24" height="24" viewBox="0 0 24 24"><g transform="translate(-5729 22482)"><rect width="24" height="24" transform="translate(5729 -22482)" fill="none"/><g transform="translate(5732 -22477)"><path d="M65.056,11.262v3.692A7.474,7.474,0,0,1,59.9,16.7a7.474,7.474,0,0,1-5.16-1.75V11.262l2.807,1.254a5.779,5.779,0,0,0,4.706,0Z" transform="translate(-51.184 -2.704)" fill="#fff" stroke="#b9c6d4" stroke-linecap="round" stroke-width="2"/><path d="M61.288,3.075l7.371,3.284a.1.1,0,0,1,0,.184L61.288,9.828a3.154,3.154,0,0,1-2.563,0L51.355,6.543a.1.1,0,0,1,0-.184l7.371-3.284A3.15,3.15,0,0,1,61.288,3.075Z" transform="translate(-51.295 -2.803)" fill="#fff" stroke="#b9c6d4" stroke-width="2"/><path d="M68.736,6.409v5.058" transform="translate(-51.336 -2.761)" fill="none" stroke="#b9c6d4" stroke-linecap="round" stroke-width="2"/></g></g></svg>