<svg xmlns="http://www.w3.org/2000/svg" width="24" height="24" viewBox="0 0 24 24">
    <g transform="translate(-5724 22511)">
        <rect width="24" height="24" transform="translate(5724 -22511)" fill="none"/>
        <g transform="translate(5726 -22508.002)">
            <g transform="translate(2.688 30.202)" fill="#fff" stroke-linecap="round">
                <path d="M 9.74602222442627 -22.08727264404297 L 8.921588897705078 -22.91170692443848 L 10.28266334533691 -23.53756713867188 L 9.74602222442627 -22.08727264404297 Z"
                      stroke="none"/>
                <path d="M 9.710025787353516 -22.989990234375 L 9.843305587768555 -22.989990234375 L 9.843305587768555 -22.87570953369141 L 9.710025787353516 -22.989990234375 Z"
                      stroke="none"/>
            </g>
            <g transform="translate(3.205 30.37)" fill="#fff" stroke-linecap="round" stroke-linejoin="round">
                <path d="M 14.3903980255127 -13.27475643157959 L 8.749688148498535 -13.27475643157959 L 8.749688148498535 -18.27394676208496 L 8.749688148498535 -19.27394676208496 L 7.749688148498535 -19.27394676208496 L 5.839568138122559 -19.27394676208496 L 4.839568138122559 -19.27394676208496 L 4.839568138122559 -18.27394676208496 L 4.839568138122559 -13.27475643157959 L -0.8011418581008911 -13.27475643157959 L -0.8011418581008911 -22.58365821838379 L 6.794605255126953 -29.05618286132813 L 14.3903980255127 -22.58366584777832 L 14.3903980255127 -13.27475643157959 Z"
                      stroke="none"/>
                <path d="M 6.794596672058105 -27.74236297607422 L 0.1988582611083984 -22.12197113037109 L 0.1988582611083984 -14.27475547790527 L 3.839568138122559 -14.27475547790527 L 3.839568138122559 -18.27394676208496 C 3.839568138122559 -19.37851715087891 4.734997749328613 -20.27394676208496 5.839568138122559 -20.27394676208496 L 7.749688148498535 -20.27394676208496 C 8.854257583618164 -20.27394676208496 9.749688148498535 -19.37851715087891 9.749688148498535 -18.27394676208496 L 9.749688148498535 -14.27475547790527 L 13.3903980255127 -14.27475547790527 L 13.3903980255127 -22.12195777893066 L 6.794596672058105 -27.74236297607422 M 6.79459810256958 -30.3699951171875 L 15.25672817230225 -23.15925598144531 L 15.3903980255127 -23.04201698303223 L 15.3903980255127 -12.27475547790527 L 7.749688148498535 -12.27475547790527 L 7.749688148498535 -18.27394676208496 L 5.839568138122559 -18.27394676208496 L 5.839568138122559 -12.27475547790527 L -1.801141738891602 -12.27475547790527 L -1.801141738891602 -23.04201698303223 L -1.667471885681152 -23.15925598144531 L 6.79459810256958 -30.3699951171875 Z"
                      stroke="none" fill="#b9c6d4"/>
            </g>
            <line x1="9.976" y2="8.231" transform="translate(0 1.081)" fill="#fff" stroke="#b9c6d4"
                  stroke-linecap="round" stroke-width="2"/>
            <line x2="9.976" y2="8.206" transform="translate(10.024 1.081)" fill="#fff" stroke="#b9c6d4"
                  stroke-linecap="round" stroke-width="2"/>
            <g transform="translate(3.611 30.69)" fill="#fff" stroke-linecap="round" stroke-linejoin="round">
                <path d="M12.7-29.68v3.124l-2.2-1.829v-1.3Z" stroke="none"/>
                <path d="M 10.49999809265137 -29.67999076843262 L 12.69999885559082 -29.67999076843262 L 12.69999885559082 -26.55621147155762 L 10.49999809265137 -28.3847713470459 L 10.49999809265137 -29.67999076843262 Z"
                      stroke="none" fill="#b9c6d4"/>
            </g>
        </g>
    </g>
</svg>
