<svg id="Group_23815" data-name="Group 23815" xmlns="http://www.w3.org/2000/svg" xmlns:xlink="http://www.w3.org/1999/xlink" width="17.649" height="17.167" viewBox="0 0 17.649 17.167">
  <defs>
    <clipPath id="clip">
      <use xlink:href="#fill"/>
    </clipPath>
    <clipPath id="clip-2">
      <use xlink:href="#fill-2"/>
    </clipPath>
    <clipPath id="clip-3">
      <use xlink:href="#fill-3"/>
    </clipPath>
  </defs>
  <g id="Path_42822" data-name="Path 42822" transform="translate(-30.381 -3.193)" fill="none" stroke-linecap="round" stroke-linejoin="round">
    <path d="M43.858,4.147l-4.612-.954-4.732.954s-1.259.444-1.534,1.138l-1.716,6.491a54.912,54.912,0,0,1,7.922-.669,57.5,57.5,0,0,1,7.962.669L45.391,5.285C45.116,4.591,43.858,4.147,43.858,4.147Z" stroke="none"/>
    <path d="M 39.23627853393555 6.765172958374023 L 36.03750991821289 7.409782886505127 L 35.95381164550781 7.726397514343262 C 36.97986602783203 7.655402660369873 38.08095550537109 7.607555389404297 39.18517303466797 7.607555389404297 C 40.28092575073242 7.607555389404297 41.38873291015625 7.656733512878418 42.42669677734375 7.729282379150391 L 42.3394889831543 7.406829357147217 L 39.23627853393555 6.765172958374023 M 39.24529266357422 3.192995071411133 L 43.85752105712891 4.146675109863281 C 43.85752105712891 4.146675109863281 45.11646270751953 4.591085433959961 45.39136123657227 5.284985542297363 L 47.14696502685547 11.77611541748047 C 47.14696502685547 11.77611541748047 43.03874206542969 11.1075553894043 39.18517303466797 11.1075553894043 C 35.2430534362793 11.1075553894043 31.26300430297852 11.77611541748047 31.26300430297852 11.77611541748047 L 32.97898101806641 5.284985542297363 C 33.25387191772461 4.591085433959961 34.51281356811523 4.146675109863281 34.51281356811523 4.146675109863281 L 39.24529266357422 3.192995071411133 Z" stroke="none" fill="#fff"/>
  </g>
  <g id="Path_42823" data-name="Path 42823" transform="translate(-30.17 -3.074)" fill="none" stroke-linecap="round" stroke-linejoin="round">
    <path d="M47.819,17.339l-8.977,1-8.672-1V12.755c0-1.649,1.13-3.333,2.524-3.333,0,0,4.761-.625,6.349-.625,1.563,0,6.251.625,6.251.625,1.394,0,2.524,1.684,2.524,3.333Z" stroke="none"/>
    <path d="M 38.84853363037109 14.8115873336792 L 44.3188591003418 14.20509719848633 L 44.3188591003418 12.82418823242188 C 42.46616363525391 12.58610916137695 39.88054656982422 12.29700565338135 39.04323196411133 12.29700565338135 C 38.18930435180664 12.29700565338135 35.55568313598633 12.58677196502686 33.67000198364258 12.82527351379395 L 33.67000198364258 14.21723461151123 L 38.84853363037109 14.8115873336792 M 38.84178161621094 18.33378601074219 L 30.17000007629395 17.33850479125977 L 30.17000007629395 12.75523567199707 C 30.17000007629395 11.10605525970459 31.29998016357422 9.422035217285156 32.69414901733398 9.422035217285156 C 32.69414901733398 9.422035217285156 37.45553970336914 8.797005653381348 39.04323196411133 8.797005653381348 C 40.60652160644531 8.797005653381348 45.29470062255859 9.422035217285156 45.29470062255859 9.422035217285156 C 46.68888092041016 9.422035217285156 47.8188591003418 11.10605525970459 47.8188591003418 12.75523567199707 L 47.8188591003418 17.33850479125977 L 38.84178161621094 18.33378601074219 Z" stroke="none" fill="#fff"/>
  </g>
  <g id="Rectangle_2001" data-name="Rectangle 2001" transform="translate(0 12.875)" fill="#54f5d7" stroke="#fff" stroke-linecap="round" stroke-linejoin="round" stroke-width="3.5">
    <rect id="fill" width="2.647" height="4.292" rx="1.324" stroke="none"/>
    <path d="M0,1.75h2.6473278999328613M1.75,0v4.291555881500244M2.6473278999328613,2.541555881500244h-2.6473278999328613M0.8973278999328613,4.291555881500244v-4.291555881500244" fill="none" clip-path="url(#clip)"/>
  </g>
  <g id="Rectangle_2002" data-name="Rectangle 2002" transform="translate(15.002 12.875)" fill="#54f5d7" stroke="#fff" stroke-linecap="round" stroke-linejoin="round" stroke-width="3.5">
    <rect id="fill-2" width="2.647" height="4.292" rx="1.324" stroke="none"/>
    <path d="M0,1.75h2.6473278999328613M1.75,0v4.291555881500244M2.6473278999328613,2.541555881500244h-2.6473278999328613M0.8973278999328613,4.291555881500244v-4.291555881500244" fill="none" clip-path="url(#clip-2)"/>
  </g>
  <g id="Ellipse_773" data-name="Ellipse 773" transform="translate(2.647 8.583)" fill="#54f5d7" stroke="#fff" stroke-linecap="round" stroke-linejoin="round" stroke-width="3.5">
    <circle cx="1.324" cy="1.324" r="1.324" stroke="none"/>
    <circle cx="1.324" cy="1.324" r="0.426" fill="none"/>
  </g>
  <g id="Ellipse_774" data-name="Ellipse 774" transform="translate(12.354 8.583)" fill="#54f5d7" stroke="#fff" stroke-linecap="round" stroke-linejoin="round" stroke-width="3.5">
    <circle cx="1.324" cy="1.324" r="1.324" stroke="none"/>
    <circle cx="1.324" cy="1.324" r="0.426" fill="none"/>
  </g>
  <g id="Rectangle_2003" data-name="Rectangle 2003" transform="translate(6.177 10.491)" fill="#54f5d7" stroke="#fff" stroke-linecap="round" stroke-linejoin="round" stroke-width="3.5">
    <rect id="fill-3" width="5.295" height="1.907" rx="0.954" stroke="none"/>
    <path d="M0,0.15735816955566406h5.294655799865723M3.5446557998657227,0v1.907358169555664M5.294655799865723,1.75h-5.294655799865723M1.75,1.907358169555664v-1.907358169555664" fill="none" clip-path="url(#clip-3)"/>
  </g>
</svg>
